<svg width="328" height="331" xmlns="http://www.w3.org/2000/svg" xmlns:xlink="http://www.w3.org/1999/xlink" overflow="hidden"><defs><clipPath id="clip0"><rect x="775" y="1431" width="328" height="331"/></clipPath><linearGradient x1="822.5" y1="1575.5" x2="822.5" y2="1537.5" gradientUnits="userSpaceOnUse" spreadMethod="reflect" id="fill1"><stop offset="0" stop-color="#85312F"/><stop offset="0.48" stop-color="#C25552"/><stop offset="1" stop-color="#D99694"/></linearGradient><linearGradient x1="972" y1="1620.5" x2="972" y2="1581.5" gradientUnits="userSpaceOnUse" spreadMethod="reflect" id="fill2"><stop offset="0" stop-color="#85312F"/><stop offset="0.48" stop-color="#C25552"/><stop offset="1" stop-color="#D99694"/></linearGradient><linearGradient x1="848.5" y1="1643.5" x2="848.5" y2="1681.5" gradientUnits="userSpaceOnUse" spreadMethod="reflect" id="fill3"><stop offset="0" stop-color="#FFFFFF"/><stop offset="0.74" stop-color="#A6A6A6"/><stop offset="0.83" stop-color="#BFBFBF"/><stop offset="1" stop-color="#D9D9D9"/></linearGradient><linearGradient x1="966.5" y1="1524.5" x2="966.5" y2="1485.5" gradientUnits="userSpaceOnUse" spreadMethod="reflect" id="fill4"><stop offset="0" stop-color="#85312F"/><stop offset="0.48" stop-color="#C25552"/><stop offset="1" stop-color="#D99694"/></linearGradient><linearGradient x1="925.5" y1="1674.5" x2="925.5" y2="1712.5" gradientUnits="userSpaceOnUse" spreadMethod="reflect" id="fill5"><stop offset="0" stop-color="#FFFFFF"/><stop offset="0.74" stop-color="#A6A6A6"/><stop offset="0.83" stop-color="#BFBFBF"/><stop offset="1" stop-color="#D9D9D9"/></linearGradient><linearGradient x1="811" y1="1760.5" x2="811" y2="1722.5" gradientUnits="userSpaceOnUse" spreadMethod="reflect" id="fill6"><stop offset="0" stop-color="#85312F"/><stop offset="0.48" stop-color="#C25552"/><stop offset="1" stop-color="#D99694"/></linearGradient><linearGradient x1="1082.5" y1="1588.5" x2="1082.5" y2="1627.5" gradientUnits="userSpaceOnUse" spreadMethod="reflect" id="fill7"><stop offset="0" stop-color="#FFFFFF"/><stop offset="0.74" stop-color="#A6A6A6"/><stop offset="0.83" stop-color="#BFBFBF"/><stop offset="1" stop-color="#D9D9D9"/></linearGradient><linearGradient x1="1050.5" y1="1697.5" x2="1050.5" y2="1659.5" gradientUnits="userSpaceOnUse" spreadMethod="reflect" id="fill8"><stop offset="0" stop-color="#85312F"/><stop offset="0.48" stop-color="#C25552"/><stop offset="1" stop-color="#D99694"/></linearGradient><linearGradient x1="907.5" y1="1433.5" x2="907.5" y2="1472.5" gradientUnits="userSpaceOnUse" spreadMethod="reflect" id="fill9"><stop offset="0" stop-color="#FFFFFF"/><stop offset="0.74" stop-color="#A6A6A6"/><stop offset="0.83" stop-color="#BFBFBF"/><stop offset="1" stop-color="#D9D9D9"/></linearGradient></defs><g clip-path="url(#clip0)" transform="translate(-775 -1431)"><path d="M1084.12 1605.9 1050.06 1680.18 922.9 1692.73Z" fill="#4F81BD" fill-rule="evenodd" fill-opacity="0.521569"/><path d="M1083.72 1608.63 972.92 1601.13 964.111 1503.1Z" fill="#4F81BD" fill-rule="evenodd" fill-opacity="0.521569"/><path d="M846.816 1664.31 821.502 1554.98 967.813 1602.5Z" fill="#4F81BD" fill-rule="evenodd" fill-opacity="0.521569"/><path d="M966.681 1508.15 908 1453" stroke="#000000" stroke-width="4" stroke-linejoin="round" stroke-miterlimit="10" fill="none" fill-rule="evenodd"/><path d="M0 0 38.5937 81.738" stroke="#000000" stroke-width="4" stroke-linejoin="round" stroke-miterlimit="10" fill="none" fill-rule="evenodd" transform="matrix(-1 -8.74228e-08 -8.74228e-08 1 848.594 1662)"/><path d="M1078.87 1606.99 969 1601" stroke="#000000" stroke-width="4" stroke-linejoin="round" stroke-miterlimit="10" fill="none" fill-rule="evenodd"/><path d="M1049.19 1679.26 970 1599" stroke="#000000" stroke-width="4" stroke-linejoin="round" stroke-miterlimit="10" fill="none" fill-rule="evenodd"/><path d="M973.065 1602.66 820 1556" stroke="#000000" stroke-width="4" stroke-linejoin="round" stroke-miterlimit="10" fill="none" fill-rule="evenodd"/><path d="M965 1506 973 1600.59" stroke="#000000" stroke-width="4" stroke-linejoin="round" stroke-miterlimit="10" fill="none" fill-rule="evenodd"/><path d="M925.439 1693.81 848 1663" stroke="#000000" stroke-width="4" stroke-linejoin="round" stroke-miterlimit="10" fill="none" fill-rule="evenodd"/><path d="M823 1556 847.786 1662.9" stroke="#000000" stroke-width="4" stroke-linejoin="round" stroke-miterlimit="10" fill="none" fill-rule="evenodd"/><path d="M0 0 121.509 60.2408" stroke="#000000" stroke-width="4" stroke-linejoin="round" stroke-miterlimit="10" fill="none" fill-rule="evenodd" transform="matrix(-1 -8.74228e-08 -8.74228e-08 1 969.509 1603)"/><path d="M803.5 1556.5C803.5 1546.01 812.007 1537.5 822.5 1537.5 832.993 1537.5 841.5 1546.01 841.5 1556.5 841.5 1566.99 832.993 1575.5 822.5 1575.5 812.007 1575.5 803.5 1566.99 803.5 1556.5Z" stroke="#000000" stroke-width="2.66667" stroke-linejoin="round" stroke-miterlimit="10" fill="url(#fill1)" fill-rule="evenodd"/><path d="M952.5 1601C952.5 1590.23 961.231 1581.5 972 1581.5 982.77 1581.5 991.5 1590.23 991.5 1601 991.5 1611.77 982.77 1620.5 972 1620.5 961.231 1620.5 952.5 1611.77 952.5 1601Z" stroke="#000000" stroke-width="2.66667" stroke-linejoin="round" stroke-miterlimit="10" fill="url(#fill2)" fill-rule="evenodd"/><path d="M829.5 1662.5C829.5 1652.01 838.007 1643.5 848.5 1643.5 858.993 1643.5 867.5 1652.01 867.5 1662.5 867.5 1672.99 858.993 1681.5 848.5 1681.5 838.007 1681.5 829.5 1672.99 829.5 1662.5Z" stroke="#000000" stroke-width="2.66667" stroke-linejoin="round" stroke-miterlimit="10" fill="url(#fill3)" fill-rule="evenodd"/><path d="M947.5 1505C947.5 1494.23 956.007 1485.5 966.5 1485.5 976.993 1485.5 985.5 1494.23 985.5 1505 985.5 1515.77 976.993 1524.5 966.5 1524.5 956.007 1524.5 947.5 1515.77 947.5 1505Z" stroke="#000000" stroke-width="2.66667" stroke-linejoin="round" stroke-miterlimit="10" fill="url(#fill4)" fill-rule="evenodd"/><path d="M906.5 1693.5C906.5 1683.01 915.007 1674.5 925.5 1674.5 935.993 1674.5 944.5 1683.01 944.5 1693.5 944.5 1703.99 935.993 1712.5 925.5 1712.5 915.007 1712.5 906.5 1703.99 906.5 1693.5Z" stroke="#000000" stroke-width="2.66667" stroke-linejoin="round" stroke-miterlimit="10" fill="url(#fill5)" fill-rule="evenodd"/><path d="M791.5 1741.5C791.5 1731.01 800.231 1722.5 811 1722.5 821.77 1722.5 830.5 1731.01 830.5 1741.5 830.5 1751.99 821.77 1760.5 811 1760.5 800.231 1760.5 791.5 1751.99 791.5 1741.5Z" stroke="#000000" stroke-width="2.66667" stroke-linejoin="round" stroke-miterlimit="10" fill="url(#fill6)" fill-rule="evenodd"/><path d="M1063.5 1608C1063.5 1597.23 1072.01 1588.5 1082.5 1588.5 1092.99 1588.5 1101.5 1597.23 1101.5 1608 1101.5 1618.77 1092.99 1627.5 1082.5 1627.5 1072.01 1627.5 1063.5 1618.77 1063.5 1608Z" stroke="#000000" stroke-width="2.66667" stroke-linejoin="round" stroke-miterlimit="10" fill="url(#fill7)" fill-rule="evenodd"/><path d="M1031.5 1678.5C1031.5 1668.01 1040.01 1659.5 1050.5 1659.5 1060.99 1659.5 1069.5 1668.01 1069.5 1678.5 1069.5 1688.99 1060.99 1697.5 1050.5 1697.5 1040.01 1697.5 1031.5 1688.99 1031.5 1678.5Z" stroke="#000000" stroke-width="2.66667" stroke-linejoin="round" stroke-miterlimit="10" fill="url(#fill8)" fill-rule="evenodd"/><path d="M888.5 1453C888.5 1442.23 897.007 1433.5 907.5 1433.5 917.993 1433.5 926.5 1442.23 926.5 1453 926.5 1463.77 917.993 1472.5 907.5 1472.5 897.007 1472.5 888.5 1463.77 888.5 1453Z" stroke="#000000" stroke-width="2.66667" stroke-linejoin="round" stroke-miterlimit="10" fill="url(#fill9)" fill-rule="evenodd"/><path d="M2.7713-1.8523 18.7647 22.076 13.2221 25.7806-2.7713 1.8523ZM22.455 15.6001 25.2549 37.7848 5.8272 26.7139Z" fill="#C00000" transform="matrix(-1 -8.74228e-08 -8.74228e-08 1 888.755 1600.5)"/><path d="M2.99983-1.45332 12.3789 17.9063 6.37925 20.8129-2.99983 1.45332ZM16.9253 11.9998 16.6457 34.3587-1.07373 20.7197Z" fill="#C00000" transform="matrix(1 0 0 -1 821.5 1720.86)"/><text font-family="Cambria Math,Cambria Math_MSFontService,sans-serif" font-weight="400" font-size="27" transform="translate(848.932 1605)">𝛽<tspan font-size="20" x="14.4733" y="5">3</tspan><tspan x="-59.7864" y="93">𝛽</tspan><tspan font-size="20" x="-45.313" y="98">2</tspan></text></g></svg>